<?xml version="1.0"?>
<svg xmlns="http://www.w3.org/2000/svg" xmlns:xlink="http://www.w3.org/1999/xlink" version="1.1" viewBox="0 0 192 192" width="13px" height="13px"><g fill="none" fill-rule="nonzero" stroke="none" stroke-width="1" stroke-linecap="butt" stroke-linejoin="miter" stroke-miterlimit="10" stroke-dasharray="" stroke-dashoffset="0" font-family="none" font-weight="none" font-size="none" text-anchor="none" style="mix-blend-mode: normal"><path d="M0,192v-192h192v192z" fill="none"/><g fill="#ffffff"><path d="M30.72,11.5575c-13.3248,0 -23.0025,7.9851 -23.0025,18.9675c0,11.0208 9.9081,19.3575 23.0025,19.3575c13.3248,0 23.0025,-8.1393 23.0025,-19.5825c-0.6144,-11.0208 -10.1001,-18.7425 -23.0025,-18.7425zM11.52,57.6c-2.112,0 -3.84,1.728 -3.84,3.84v111.36c0,2.112 1.728,3.84 3.84,3.84h38.4c2.112,0 3.84,-1.728 3.84,-3.84v-111.36c0,-2.112 -1.728,-3.84 -3.84,-3.84zM69.12,57.6c-2.112,0 -3.84,1.728 -3.84,3.84v111.36c0,2.112 1.728,3.84 3.84,3.84h34.56c2.11968,0 3.84,-1.72032 3.84,-3.84v-57.6v-0.96v-0.96c0,-9.1008 6.9912,-16.5138 15.9,-17.205c0.4608,-0.0768 0.9192,-0.075 1.38,-0.075c0.4608,0 0.9192,-0.0018 1.38,0.075c8.9088,0.6912 15.9,8.1042 15.9,17.205v59.52c0,2.11968 1.72032,3.84 3.84,3.84h34.56c2.112,0 3.84,-1.728 3.84,-3.84v-65.28c0,-24.8448 -13.3284,-49.92 -43.05,-49.92c-13.5168,0 -23.7276,5.2233 -29.91,9.5625v-5.7225c0,-2.112 -1.728,-3.84 -3.84,-3.84z"/></g></g></svg>
